<?xml version="1.0" encoding="iso-8859-1"?>
<!-- Generator: Adobe Illustrator 16.0.0, SVG Export Plug-In . SVG Version: 6.00 Build 0)  -->
<!DOCTYPE svg PUBLIC "-//W3C//DTD SVG 1.1//EN" "http://www.w3.org/Graphics/SVG/1.1/DTD/svg11.dtd">
<svg version="1.1" id="Layer_1" xmlns="http://www.w3.org/2000/svg" xmlns:xlink="http://www.w3.org/1999/xlink" x="0px" y="0px"
	 width="173px" height="60px" viewBox="0 0 600 200.901" style="enable-background:new 0 0 600 200.901;" xml:space="preserve"
	>
<g>
	<path style="fill:#CECEC9;" d="M121.379,91.224c-0.964,3.673-4.155,5.509-9.571,5.509h-12.36c-3.856,0-5.784-1.113-5.784-3.339
		c0-0.78,0.241-1.802,0.723-3.064l5.715-14.873L83.026,94.185c-1.836,2.043-3.845,3.064-6.025,3.064
		c-0.413,0-0.85-0.035-1.309-0.104c-2.616-0.298-3.925-1.606-3.925-3.925c0-0.895,0.207-1.859,0.62-2.892l8.47-21.862L59.614,94.116
		c-1.423,1.745-3.512,2.617-6.266,2.617h-6.989l13.909-39.765H41.161l5.199-8.676h22.999c3.167,0,4.751,1.16,4.751,3.478
		c0,0.895-0.218,1.974-0.654,3.236l-7.402,21.346l14.804-16.767c1.882-2.157,3.328-3.558,4.338-4.2
		c1.675-1.056,3.844-1.584,6.507-1.584c0.758,0,1.549,0.264,2.376,0.792c1.262,0.826,1.894,2.054,1.894,3.684
		c0,1.01-0.253,2.146-0.758,3.409l-6.679,17.352l13.255-13.324c1.882-1.882,3.133-3.018,3.752-3.409
		c1.079-0.62,2.628-0.917,4.648-0.895c0.803,0,1.653,0.298,2.548,0.895c1.377,0.895,2.066,2.204,2.066,3.925
		c0,0.987-0.23,2.078-0.689,3.271l-8.228,21.724H121.379z"/>
	<path style="fill:#CECEC9;" d="M165.792,91.224c-1.102,3.673-3.914,5.509-8.435,5.509h-13.048c-3.718,0-5.578-1.193-5.578-3.581
		c-2.502,2.846-5.578,4.269-9.227,4.269c-2.685,0-4.866-0.826-6.542-2.479c-1.675-1.652-2.513-3.81-2.513-6.472
		c0-4.797,1.836-8.584,5.509-11.362c3.328-2.524,7.448-3.787,12.36-3.787h19.659l-6.473,17.903H165.792z M143.586,78.83h-7.609
		l-2.41,8.022c-0.138,0.505-0.207,0.964-0.207,1.377c0,1.997,1.951,2.995,5.853,2.995L143.586,78.83z"/>
	<path style="fill:#CECEC9;" d="M212.891,91.224c-0.597,2.02-1.917,3.512-3.959,4.476c-1.446,0.688-2.995,1.033-4.648,1.033h-13.737
		c-3.145,0-4.717-1.033-4.717-3.099c0-0.688,0.16-1.492,0.482-2.41l2.617-7.402l-11.844,10.019
		c-2.777,1.928-5.061,2.892-6.851,2.892h-6.335l8.229-23.412h12.429l-3.891,11.017l10.501-8.607c2.846-2.318,5.933-3.431,9.261-3.34
		c2.249,0.092,3.374,1.286,3.374,3.581c0,0.85-0.184,1.802-0.551,2.858l-4.441,12.394H212.891z"/>
	<path style="fill:#CECEC9;" d="M257.166,91.224c-1.056,3.673-4.464,5.509-10.226,5.509h-6.128
		c-2.043,5.554-4.075,9.571-6.094,12.05c-2.96,3.626-6.713,5.44-11.258,5.44c-2.571,0-4.62-0.718-6.146-2.152
		c-1.527-1.435-2.29-3.426-2.29-5.973c0-4.981,1.457-8.194,4.373-9.64c-2.158-0.504-3.937-1.503-5.337-2.995
		c-1.629-1.699-2.444-3.753-2.444-6.163c0-0.941,0.15-1.928,0.448-2.961c0.986-3.741,3.156-6.564,6.507-8.469
		c2.938-1.698,6.473-2.548,10.604-2.548h19.693l-6.3,17.903H257.166z M228.418,97.663c-1.492,0-2.887,0.854-4.183,2.565
		c-1.297,1.709-1.945,3.414-1.945,5.112c0,1.515,0.654,2.731,1.962,3.65L228.418,97.663z M234.478,78.83h-7.333l-2.754,8.745
		c-0.161,0.528-0.241,1.01-0.241,1.446c0,1.951,1.423,2.926,4.269,2.926c0.184,0,0.453-0.011,0.809-0.034
		c0.355-0.023,0.625-0.035,0.809-0.035L234.478,78.83z"/>
	<path style="fill:#CECEC9;" d="M315.35,73.321c-0.918,3.673-3.672,5.509-8.262,5.509h-21.553c0.758,0.505,1.377,1.429,1.859,2.771
		s0.677,2.508,0.585,3.495c-0.322,3.833-2.009,6.84-5.061,9.02c-2.916,2.089-6.703,3.145-11.362,3.167
		c-5.417,0.046-9.583-1.021-12.498-3.202c-2.593-1.928-3.89-4.464-3.89-7.609c0-0.62,0.057-1.239,0.172-1.859
		c0.597-3.465,2.318-6.185,5.165-8.159c3.029-2.088,7.069-3.133,12.119-3.133H315.35z M277.823,78.83h-7.884l-3.099,8.813
		c-0.161,0.459-0.241,0.896-0.241,1.309c0,1.974,1.836,2.961,5.508,2.961c0.436,0,0.814-0.012,1.136-0.035L277.823,78.83z"/>
	<path style="fill:#CECEC9;" d="M382.693,56.624c0,2.387-0.953,4.373-2.857,5.956c-1.791,1.515-3.902,2.272-6.336,2.272
		c-2.41,0-4.521-0.757-6.334-2.272c-1.883-1.583-2.824-3.569-2.824-5.956c0-0.734,0.115-1.538,0.346-2.41h-0.758
		c-5.533,0-10.49,2.502-14.873,7.505c-4.248,4.82-6.369,10.031-6.369,15.631c0,4.706,1.756,8.275,5.268,10.707
		c3.029,2.112,7.012,3.167,11.945,3.167l6.404-17.903h12.842c-1.883,5.44-4.729,13.577-8.539,24.41
		c-1.813,5.118-6.15,7.678-13.014,7.678c-0.803,0-1.721-0.023-2.754-0.069l3.168-8.607c-7.988,0-14.494-1.159-19.521-3.478
		c-6.84-3.167-10.26-8.263-10.26-15.286c0-3.902,1.205-7.872,3.615-11.912c3.373-5.669,8.24-10.099,14.598-13.29
		c5.99-2.983,12.451-4.476,19.383-4.476h7.678c2.387,0,4.488,0.792,6.301,2.376C381.729,52.297,382.693,54.282,382.693,56.624z"/>
	<path style="fill:#CECEC9;" d="M425.729,91.224c0,1.607-0.883,2.961-2.65,4.063c-1.563,0.964-3.191,1.446-4.889,1.446h-13.188
		c-3.488,0-5.232-1.446-5.232-4.338c0-0.734,0.148-1.526,0.447-2.375l3.891-11.189h-7.334l-3.82,9.881
		c-0.643,1.676-2.031,2.513-4.166,2.513h-3.65l4.51-12.394c-1.422-0.321-2.576-1.038-3.459-2.152
		c-0.883-1.113-1.326-2.393-1.326-3.839c0-2.639,1.229-4.682,3.684-6.128c2.043-1.193,4.477-1.79,7.299-1.79h5.578l-2.893,8.4
		h19.039l-6.266,17.903H425.729z"/>
	<path style="fill:#CECEC9;" d="M484.326,73.321c-0.918,3.673-3.672,5.509-8.262,5.509h-21.553c0.758,0.505,1.377,1.429,1.859,2.771
		s0.676,2.508,0.584,3.495c-0.32,3.833-2.008,6.84-5.061,9.02c-2.914,2.089-6.701,3.145-11.361,3.167
		c-5.418,0.046-9.582-1.021-12.498-3.202c-2.594-1.928-3.891-4.464-3.891-7.609c0-0.62,0.059-1.239,0.174-1.859
		c0.596-3.465,2.316-6.185,5.164-8.159c3.029-2.088,7.068-3.133,12.119-3.133H484.326z M446.799,78.83h-7.883l-3.1,8.813
		c-0.16,0.459-0.24,0.896-0.24,1.309c0,1.974,1.836,2.961,5.508,2.961c0.436,0,0.814-0.012,1.137-0.035L446.799,78.83z"/>
	<path style="fill:#CECEC9;" d="M512.387,91.224c-0.482,1.906-1.539,3.352-3.168,4.338c-1.285,0.78-2.65,1.17-4.096,1.17H490.73
		c-3.373,0-5.061-1.079-5.061-3.236c-1.791,2.158-4.213,3.236-7.264,3.236h-6.061c-1.859,0-3.305-0.482-4.338-1.446
		c-0.963-0.896-1.445-2.077-1.445-3.546c0-0.826,0.16-1.675,0.482-2.548l5.783-15.872h12.498l-6.439,17.903h6.99l6.402-17.903
		h12.361l-6.266,17.903H512.387z"/>
	<path style="fill:#CECEC9;" d="M557.316,91.224c-0.207,1.768-1.137,3.156-2.789,4.166c-1.469,0.895-3.203,1.343-5.199,1.343
		h-18.764c-2.822,0-4.27-1.458-4.338-4.373c1.055-0.436,2.123-0.861,3.201-1.274c1.516-0.688,2.662-1.526,3.443-2.513
		c1.057-1.308,1.584-2.983,1.584-5.026c0-1.262-0.586-2.376-1.756-3.34s-2.467-1.423-3.891-1.377l-10.775,31.158h-12.498
		l15.527-44.998h12.463l-2.857,8.332c5.164,0,8.584,0.241,10.26,0.723c4.086,1.125,6.047,3.753,5.887,7.884
		c-0.092,1.836-0.906,3.684-2.443,5.543c-1.584,1.928-3.408,3.179-5.475,3.752H557.316z"/>
</g>
<g>
	<path style="fill:#CECEC9;" d="M270.646,134.481l-6.765,19.314h-6.249l6.8-19.848h-5.457l2.29-4.373h6.73
		c0.896,0,1.612,0.258,2.152,0.775c0.574,0.551,0.861,1.291,0.861,2.221C271.007,133.155,270.887,133.792,270.646,134.481z"/>
	<path style="fill:#CECEC9;" d="M294.075,138.354c0,3.363-1.371,6.507-4.115,9.434c-2.294,2.433-5.198,4.425-8.709,5.974h-5.319
		c3.466-2.559,5.944-5.124,7.437-7.695c-2.56-0.035-4.671-0.729-6.335-2.083c-1.802-1.458-2.703-3.426-2.703-5.905
		c0-2.559,0.913-4.67,2.737-6.335c1.756-1.606,3.936-2.433,6.541-2.479C290.586,129.116,294.075,132.146,294.075,138.354z
		 M287.516,135.428c0-2.284-0.786-3.426-2.358-3.426c-1.17,0-2.158,0.838-2.96,2.513c-0.678,1.389-1.016,2.749-1.016,4.08
		c0,1.033,0.327,1.991,0.981,2.875c0.7,0.93,1.572,1.475,2.617,1.636c0.654-0.734,1.268-1.899,1.842-3.495
		C287.217,137.97,287.516,136.575,287.516,135.428z"/>
	<path style="fill:#CECEC9;" d="M318.828,135.462c0,3.087-1.572,5.957-4.717,8.607c-2.65,2.238-5.67,3.81-9.055,4.717h11.775
		l-1.773,5.009h-17.972l1.48-4.906c2.57-1.044,5.205-2.737,7.902-5.078c3.236-2.812,4.854-5.302,4.854-7.471
		c0-2.249-0.865-3.374-2.6-3.374H308.5c0.057,0.322,0.086,0.568,0.086,0.74c0,1.171-0.477,2.158-1.43,2.961
		c-0.895,0.769-1.951,1.153-3.166,1.153c-1.195,0-2.238-0.384-3.133-1.153c-0.941-0.803-1.412-1.79-1.412-2.961
		c0-1.916,0.896-3.208,2.686-3.873c1.205-0.459,3.225-0.688,6.059-0.688c2.961,0,5.152,0.247,6.576,0.74
		C317.475,130.814,318.828,132.673,318.828,135.462z"/>
	<path style="fill:#CECEC9;" d="M342.137,129.575l-5.404,12.515h3.287l-1.309,2.754h-3.166l-3.84,8.952h-6.215l3.908-8.952h-3.701
		l1.309-2.754h3.461l3.426-7.609h-7.559l-0.877,1.79h-3.426l2.719-6.696H342.137z"/>
</g>
</svg>
